:SAMPLES-PER-SECOND 30
:FULLY-SPECIFIED
:DEGREES
354
root  1.28665 38.9436 0.577109 -6.57935 -5.02121 4.83853
RightUpLeg  -10.2306 -9.40507 -12.4222
RightLeg  23.973 0.363121 -8.59619
RightFoot  -5.98175 -0.199999 3.38184
RightToes  1.74624e-010 -3.18055e-015 -2.98177e-016
Spine  1.12655 -0.699971 -1.07277
Spine1  13.8519 -0.917362 0.550815
HEad  -21.7245 10.2735 -0.221879
LeftShoulder1  -3.88251e-019 9.70628e-020 -3.87848e-018
LeftArm  8.98578 42.9005 -80.2966
LeftForeArm  -160.653 -70.5633 148.523
LeftHand  -3.94876 -11.2182 27.9811
RightShoulder  7.27467 10.4755 34.366
RightArm  53.4676 -36.7477 17.7216
RightForeArm  -133.745 59.4796 -139.294
RightHand  -6.39658 10.9109 -43.2283
LeftUpLeg  -2.55095 3.70265 -10.0904
LeftLeg  20.0567 6.83323 9.21556
LeftFoot  -11.4034 -0.0521615 1.44483
LeftToes  7.37594e-011 2.64622e-011 -6.25182e-011
355
root  1.58504 39.0483 0.472527 -6.54671 -3.42338 3.80641
RightUpLeg  -9.68029 -11.92 -10.4659
RightLeg  25.6297 0.315437 -9.19526
RightFoot  -7.68268 -0.119572 2.91709
RightToes  1.74624e-010 -3.18055e-015 -2.98177e-016
Spine  1.0954 -0.527462 0.211833
Spine1  13.7255 -0.570734 0.250341
HEad  -21.0767 8.99004 0.32367
LeftShoulder1  -3.88251e-019 9.70628e-020 -3.87848e-018
LeftArm  12.3548 42.1376 -80.8604
LeftForeArm  -157.685 -71.8059 145.855
LeftHand  -3.79976 -10.7604 27.7206
RightShoulder  7.26152 10.4962 34.2534
RightArm  57.095 -36.081 18.7694
RightForeArm  -128.368 60.5832 -136.489
RightHand  -6.19772 10.0203 -44.1717
LeftUpLeg  -2.54827 2.47339 -9.67751
LeftLeg  19.6228 6.58851 8.94339
LeftFoot  -11.1467 -0.0694498 2.31579
LeftToes  7.37594e-011 2.64622e-011 -6.25182e-011
356
root  1.79289 39.1313 0.371716 -6.61174 -2.10157 2.88395
RightUpLeg  -8.87648 -14.3738 -8.19087
RightLeg  26.7013 1.88312 -8.73569
RightFoot  -8.50425 -0.14787 4.11944
RightToes  1.74624e-010 -3.18055e-015 -2.98177e-016
Spine  1.62929 -0.18701 1.19765
Spine1  12.9133 -0.0474777 -0.251504
HEad  -19.8443 7.5917 1.04792
LeftShoulder1  -3.88251e-019 9.70628e-020 -3.87848e-018
LeftArm  15.366 41.7312 -80.8676
LeftForeArm  -154.585 -72.8499 143.2
LeftHand  -3.62615 -10.5069 26.9296
RightShoulder  7.26904 10.5321 34.2138
RightArm  59.0976 -35.4215 18.9669
RightForeArm  -126.432 61.1767 -134.97
RightHand  -5.83664 9.73595 -42.5506
LeftUpLeg  -2.51074 1.16283 -9.23379
LeftLeg  19.2741 6.61502 8.81218
LeftFoot  -10.8046 -0.0854541 2.82432
LeftToes  7.37594e-011 2.64622e-011 -6.25182e-011
357
root  1.92289 39.1977 0.282558 -6.55888 -1.05819 2.37815
RightUpLeg  -7.85629 -17.2407 -5.8859
RightLeg  26.085 1.58414 -8.68325
RightFoot  -8.86932 -0.153667 4.64044
RightToes  1.74624e-010 -3.18055e-015 -2.98177e-016
Spine  1.87189 0.197875 1.24487
Spine1  12.299 0.422636 -0.409384
HEad  -18.6371 6.65332 1.9234
LeftShoulder1  -3.88251e-019 9.70628e-020 -3.87848e-018
LeftArm  16.3514 42.0721 -79.9956
LeftForeArm  -154.563 -73.1747 142.443
LeftHand  -3.45622 -10.5181 25.7026
RightShoulder  7.20642 10.5158 33.929
RightArm  59.6404 -35.5069 18.4752
RightForeArm  -126.61 61.4188 -134.435
RightHand  -5.3203 8.97112 -40.9755
LeftUpLeg  -2.53212 0.216854 -9.05283
LeftLeg  18.8472 6.57798 8.62774
LeftFoot  -10.4252 -0.0980991 3.00496
LeftToes  7.37594e-011 2.64622e-011 -6.25182e-011
358
root  2.00991 39.2875 0.210371 -6.34998 -0.239859 2.18312
RightUpLeg  -6.60729 -19.2079 -3.82809
RightLeg  23.5937 -2.28638 -9.71566
RightFoot  -9.38919 -0.0804191 3.14189
RightToes  1.74624e-010 -3.18055e-015 -2.98177e-016
Spine  1.48311 0.481374 0.640109
Spine1  12.2078 0.722373 -0.0327775
HEad  -17.7155 6.20975 2.85455
LeftShoulder1  -3.88251e-019 9.70628e-020 -3.87848e-018
LeftArm  16.3682 42.7207 -78.4281
LeftForeArm  -155.706 -73.1645 142.624
LeftHand  -3.18226 -10.4226 23.8843
RightShoulder  7.1152 10.4607 33.5808
RightArm  59.2422 -35.7389 18.1652
RightForeArm  -127.197 61.6583 -133.939
RightHand  -4.79266 8.72128 -37.8268
LeftUpLeg  -2.43858 -0.195085 -9.04734
LeftLeg  17.945 6.27664 8.16284
LeftFoot  -9.95085 -0.117187 3.28829
LeftToes  7.37594e-011 2.64622e-011 -6.25182e-011
359
root  2.08749 39.3773 0.153546 -6.14564 0.201874 2.1481
RightUpLeg  -5.57581 -18.0512 -2.4939
RightLeg  21.0082 -8.38154 -11.1146
RightFoot  -9.62035 -0.0204127 1.51605
RightToes  1.74624e-010 -3.18055e-015 -2.98177e-016
Spine  0.878552 0.673564 0.245704
Spine1  12.3453 1.07371 -0.0512422
HEad  -16.9858 5.89665 3.67678
LeftShoulder1  -3.88251e-019 9.70628e-020 -3.87848e-018
LeftArm  16.2301 43.15 -76.4659
LeftForeArm  -154.719 -73.2887 142.19
LeftHand  -2.88139 -10.3935 21.7592
RightShoulder  7.12068 10.4467 33.6391
RightArm  58.45 -35.2805 18.1711
RightForeArm  -125.952 62.0456 -132.855
RightHand  -4.44855 9.36359 -33.8783
LeftUpLeg  -2.20796 -0.34934 -9.15623
LeftLeg  16.8368 6.09295 7.66156
LeftFoot  -9.42592 -0.142955 3.67185
LeftToes  7.37594e-011 2.64622e-011 -6.25182e-011
360
root  2.18795 39.4072 0.0974338 -6.0643 0.164902 2.17703
RightUpLeg  -5.25405 -14.8333 -2.22293
RightLeg  20.1497 -12.9264 -12.0761
RightFoot  -9.03419 -0.0684007 2.48061
RightToes  1.74624e-010 -3.18055e-015 -2.98177e-016
Spine  0.507373 0.864378 0.512123
Spine1  12.4689 1.63938 -1.1861
HEad  -16.3835 5.57876 4.18726
LeftShoulder1  -3.88251e-019 9.70628e-020 -3.87848e-018
LeftArm  15.1394 43.1081 -74.093
LeftForeArm  -152.789 -73.2146 142.099
LeftHand  -2.74535 -10.924 20.1007
RightShoulder  7.16007 10.4573 33.8189
RightArm  57.1522 -34.2681 18.0041
RightForeArm  -123.544 62.2994 -131.919
RightHand  -4.46731 10.26 -32.1599
LeftUpLeg  -2.12822 -0.505577 -9.37933
LeftLeg  16.3284 6.36491 7.53513
LeftFoot  -9.1507 -0.157629 3.86321
LeftToes  7.37594e-011 2.64622e-011 -6.25182e-011
361
root  2.31329 39.3705 0.0258887 -6.06316 -0.228855 2.22174
RightUpLeg  -5.59554 -15.314 -2.79728
RightLeg  20.4374 -10.6454 -11.698
RightFoot  -8.31786 -0.195248 5.06753
RightToes  1.74624e-010 -3.18055e-015 -2.98177e-016
Spine  0.464985 1.06795 0.937042
Spine1  12.4754 2.21326 -2.80792
HEad  -15.9077 5.44268 4.31872
LeftShoulder1  -3.88251e-019 9.70628e-020 -3.87848e-018
LeftArm  12.3129 42.5095 -70.9712
LeftForeArm  -153.766 -72.1683 144.629
LeftHand  -2.80519 -11.7282 19.5604
RightShoulder  7.03923 10.3821 33.3581
RightArm  54.6808 -33.2249 17.2818
RightForeArm  -123.504 61.8801 -132.986
RightHand  -4.65354 10.5834 -32.7962
LeftUpLeg  -2.37837 -0.358272 -9.62296
LeftLeg  16.634 6.66783 7.72786
LeftFoot  -9.29785 -0.154525 3.90686
LeftToes  7.37594e-011 2.64622e-011 -6.25182e-011
362
root  2.43887 39.3307 -0.062421 -6.07196 -0.879304 2.26805
RightUpLeg  -6.08929 -17.8216 -3.86363
RightLeg  21.1944 -4.1799 -9.58903
RightFoot  -7.9103 -0.275789 6.37908
RightToes  1.74624e-010 -3.18055e-015 -2.98177e-016
Spine  0.731694 1.25133 0.888828
Spine1  12.1451 2.53517 -3.77704
HEad  -15.4871 5.65613 4.24427
LeftShoulder1  -3.88251e-019 9.70628e-020 -3.87848e-018
LeftArm  8.0954 41.3235 -66.4857
LeftForeArm  -158.139 -69.8495 149.462
LeftHand  -2.93113 -12.033 20.0584
RightShoulder  6.72908 10.1831 32.1672
RightArm  50.1394 -32.1587 15.9569
RightForeArm  -126.897 60.464 -136.618
RightHand  -4.74854 10.5484 -33.4959
LeftUpLeg  -2.6609 0.390369 -9.7562
LeftLeg  16.9661 6.62777 7.78737
LeftFoot  -9.53563 -0.152498 4.08083
LeftToes  7.37594e-011 2.64622e-011 -6.25182e-011
363
root  2.54906 39.344 -0.154719 -6.10143 -1.91568 2.30818
RightUpLeg  -6.53152 -19.3742 -4.93353
RightLeg  22.1559 2.95635 -6.82087
RightFoot  -7.64175 -0.275958 6.04363
RightToes  1.74624e-010 -3.18055e-015 -2.98177e-016
Spine  1.27829 1.45922 0.42249
Spine1  11.3185 2.67591 -3.85368
HEad  -15.0034 6.24874 4.20411
LeftShoulder1  -3.88251e-019 9.70628e-020 -3.87848e-018
LeftArm  3.17905 39.4677 -59.9044
LeftForeArm  -163.65 -66.8808 154.16
LeftHand  -2.98851 -11.567 20.9938
RightShoulder  6.34801 9.9159 30.7042
RightArm  42.6183 -30.8319 14.3155
RightForeArm  -131.73 58.4257 -141.035
RightHand  -4.92127 10.9096 -33.9152
LeftUpLeg  -2.58861 1.27588 -9.77295
LeftLeg  16.6344 6.85836 7.55991
LeftFoot  -9.43371 -0.164964 4.36332
LeftToes  7.37594e-011 2.64622e-011 -6.25182e-011
364
root  2.6342 39.3951 -0.224318 -6.16715 -3.4773 2.351
RightUpLeg  -7.0097 -19.0637 -5.86191
RightLeg  23.1545 7.94897 -4.7067
RightFoot  -7.71117 -0.259364 5.786
RightToes  1.74624e-010 -3.18055e-015 -2.98177e-016
Spine  1.97363 1.76905 -0.058419
Spine1  10.0911 2.88124 -3.72914
HEad  -14.2886 7.13861 4.31001
LeftShoulder1  -3.88251e-019 9.70628e-020 -3.87848e-018
LeftArm  -2.06861 36.857 -51.0051
LeftForeArm  -169.103 -64.4805 157.259
LeftHand  -3.02414 -10.7279 22.3254
RightShoulder  5.91282 9.59613 28.9911
RightArm  32.1487 -29.3461 12.7265
RightForeArm  -136.945 56.7685 -144.244
RightHand  -5.26243 11.4273 -35.0813
LeftUpLeg  -2.1943 1.49546 -9.76399
LeftLeg  15.8968 8.25373 7.35341
LeftFoot  -9.03426 -0.182281 4.45697
LeftToes  7.37594e-011 2.64622e-011 -6.25182e-011
365
root  2.68394 39.4415 -0.24823 -6.18784 -5.395 2.37877
RightUpLeg  -7.58926 -18.2982 -6.66819
RightLeg  23.7854 9.47656 -4.055
RightFoot  -8.35006 -0.237062 6.06545
RightToes  1.74624e-010 -3.18055e-015 -2.98177e-016
Spine  2.70075 2.13869 -0.354714
Spine1  8.54091 3.18333 -3.92322
HEad  -13.1683 8.04964 4.55297
LeftShoulder1  -3.88251e-019 9.70628e-020 -3.87848e-018
LeftArm  -7.29401 33.8232 -40.5285
LeftForeArm  -174.531 -63.5491 158.592
LeftHand  -3.17464 -9.90667 24.6265
RightShoulder  5.36029 9.16534 26.7498
RightArm  20.2239 -27.951 11.1898
RightForeArm  -141.638 56.2378 -145.451
RightHand  -5.3353 11.0229 -36.351
LeftUpLeg  -1.81794 0.906294 -9.73951
LeftLeg  15.3485 10.7305 7.36574
LeftFoot  -8.6706 -0.188474 4.27473
LeftToes  7.37594e-011 2.64622e-011 -6.25182e-011
